<?xml version="1.0" encoding="utf-8"?>
<!-- Generator: Adobe Illustrator 19.2.0, SVG Export Plug-In . SVG Version: 6.00 Build 0)  -->
<svg version="1.1" id="Calque_1" xmlns="http://www.w3.org/2000/svg" xmlns:xlink="http://www.w3.org/1999/xlink" x="0px" y="0px"
	 viewBox="0 0 595.3 841.9" style="enable-background:new 0 0 595.3 841.9;" xml:space="preserve">
<style type="text/css">
	.st0{fill:#666666;}
	.st1{fill:none;}
	.st2{fill:#339898;}
	.st3{fill:#339999;}
	.st4{fill:#3A9C9C;}
</style>
<g>
	<path class="st0" d="M376.6,328.8c-10.6,18.2-18.9,30.9-25.8,39.4c0,0-7.7,8.6-7.8,19.2c0,6.3,1.3,7.4,7,4.7
		c9.9-4.6,16.2-13.3,23.8-20.6c8.8-8.5,16.7-17.9,27.9-23.6c2.9-1.5,5.4-2.1,8.1,0.3c2.9,2.5,4.9,5.4,3.1,9.4
		c-3.1,7-7.8,12.7-13.5,17.6c-12.9,10.9-26.5,21.1-38.1,33.5c-0.2,0.2-1.2,0.8-2,2c-1.3,2-2,5.1-1,6.2c2.2,2.6,13-3.3,16.1-5
		c10.8-5.9,13.7-10.2,23.9-14c8.6-3.2,10.5-1.4,10.9-1c1.5,1.6,0.5,4.8,0.1,6c-4.2,13.2-29.3,27.2-46.6,36.8
		c-21.1,11.6-21.4,11.8-23.1,13.1c-6.6,5.4-22.5,18.1-27.9,40.4c-3.6,14.9-1,27.4,0,31.8c1.5,6.7,3.5,11,6.9,18.5
		c4.2,9.2,10.5,22.6,22.7,34.8c3.4,3.4,7,6.5,10.9,9.4c4.5,3.3,8.5,7.3,13.9,9.3c0.6,0.2,1.4,1.1,1.4,1.6c0,1.2-1.1,1.2-2.1,1.3
		c-3.3,0.3-6.5,1-9.7,0.8c-11.6-0.8-23.3,0-34.9-0.1c-24.9-0.3-49.9-0.5-74.8-0.4c-14.2,0.1-28.3,0.6-42.5,0.2
		c-2.2-0.1-5.6,0.5-6.3-1.4c-0.9-2.6,2.4-4,4.2-5.5c15.2-12.4,24.7-29,32.6-46.4c5.9-13,7.9-23.3,8.3-26.2c2.1-12.9,0.9-23,0.5-26.2
		c-1.1-8-3.6-13.8-7.3-25.3c-2.9-9.2-7-18-11-26.7c-8.7-19.2-18.9-37.4-31.4-54.6c-4.5-6.2-10.7-10.5-15-16.8
		c-3.2-4.8-2.2-9.9-1.6-14.8c0.3-2.8,3.4-3.9,6-4.6c10.3-2.7,18.3,0.9,24.7,8.9c7.4,9.2,15.1,18.2,23.5,26.4c1.4,1.4,3,2.7,4.8,3.7
		c15.1,8.7,25.5,5.3,32.6-10.6c4.8-10.8,7.8-22.1,10.9-33.5c3-11.2,6.6-22.3,12.3-32.6c1.7-5.6,6.4-9.3,11.4-9.3
		c4.4,0,7.4,3,8.1,3.7c0.3,1.4,0.6,3.5,0.6,6.1c0,0,0.1,2.9-0.3,5.9c-1.4,10.1-16.4,43.1-9,54.3c0.7,1,2.8,4.3,6.4,4.8
		c1.8,0.3,3.5,0,4.7-0.8c5.6-3.7,10.8-7.7,14.5-13.6c12.1-19.5,15.8-28.8,24.3-40.4c2.4-3.3,4.5-5.8,5.9-7.4
		c1.2-1.2,3.2-3.1,6.2-4.3c0.5-0.2,3.6-1.5,7.5-1.4c1.5,0,2.4,0.2,3,0.6c0.9,0.5,1.6,1.4,2.8,3c2.1,2.6,2.2,5.4,2.2,6.3
		C378.7,324.2,377.6,326.5,376.6,328.8z"/>
	<g>
		<path class="st1" d="M290.7,141.6c3.1-4.5,4.3-9.3,5.2-13.9c1.8-8.5-0.7-17.1-2.3-25.5c-0.6-3.3-2.8-5.9-5-8.3
			c-0.7-0.8-1.9-1.4-2.2-2.4c-2.3-6-7.3-9.9-12.4-12.7c-9.3-5.1-18.7-9.9-30.2-8.8c-4.6,0.4-8.4,1.9-12.6,3.1
			c-10.4,2.8-19.5,7.5-26.6,15.7c-5.4,6.2-5.3,6.3,1.7,11c0.4,0.3,0.7,0.6,1.1,0.9c5.3,5.2,10.5,10.5,15.8,15.6
			c0.8,0.7,1,1.5,0.9,2.5c-0.3,1.6-0.9,3-2.6,3.6c-2.1,0.7-3.3-0.8-4.1-2.2c-3-4.8-6.3-9.6-11.1-12.3c-6.6-3.8-13-7.8-21-9.4
			c-12-2.5-23.2-0.8-34.1,3.5c-2.6,1-7.2,1.4-7.2,4.7c0,3,3.8,4.9,6.5,6.7c7.9,5.3,11.4,13.2,14,22c1.8,6.2,0.9,12.5,0.9,18.7
			c0.1,6.5-3.9,11.5-6.6,16.8c-0.7,1.4-1,3.3-2.9,4.5c-5.2,3.3-8.1,9.2-8.1,14.5c0,9-1.8,18.1,3.9,27.3c5.1,8.3,11.1,13.8,19.3,17.5
			c6.4,2.9,13.3,4,20.3,3.2c8.8-1.1,17.4-2.5,24.1-9.4c3-3,5.3-6.4,7.8-9.7c6-8.2,6.4-17.6,5.4-27c-1-9.6-7.2-16-15.8-19.6
			c-6.5-2.8-13.6-3.9-20.3-0.4c-3.7,1.9-5.2-0.7-6.1-2.5c-1.3-2.7,1.8-3.2,3.5-3.7c11.9-3.6,23.4-2.3,32.9,5.7
			c4,3.4,9.1,6.6,10.1,12.8c0.4,2.1,2,3.6,5.3,2.4c5.6-2.1,11.4-3.9,17.3-4.6c5.6-0.7,11.4,0.4,17.1,0.5c3,0.1,5.6,0.3,8.3,2
			c3.5,2.2,7.6,3.4,11.4,5c2.8,1.2,4,0.5,4-2.7c-0.1-5.6,0-11.2,0-16.8c0-5.8,0-11.5,0-17.3c0-1,0.5-2.3-1.1-2.6
			c-1.3-0.3-3-0.3-3.3,0.9c-1.7,5.6-7.6,7.2-10.4,11.7c-0.9,1.4-2.8,1.9-3.3,0.3c-0.7-2.2-1.6-5,0.5-7
			C283,151.4,287.1,147,290.7,141.6z"/>
		<path class="st1" d="M62.8,227c5.4,6.7,13.6,4.5,20.5,6.2c5.4,1.4,10.9-0.4,15.9-2.1c6.1-2,13.1-3.1,17.5-8.1
			c5.2-6,11.8-9.5,18.7-12.1c4.6-1.7,5.7-3.7,5.3-7.9c-0.1-1.2,0.1-2.5,0-3.7c-0.7-9.1,2.9-16.8,7.3-24.5c2.6-4.6,6.6-8.2,8.2-13.7
			c1.4-5.1,3-9.9,2.9-15.4c-0.1-5.4,0.2-10.6-3.4-15.2c-1.1-1.4-1.7-3.3-2.5-5c-2.5-5.2-6.8-9.4-11.3-11.8c-4.5-2.3-9.2-5-14.8-5.9
			c-5-0.8-10.2-1.9-14.9-1.4c-11.6,1.2-21.1,7.3-29.2,15.7c-6.6,6.9-6.4,16.3-10.3,24.2c-0.6,1.3,0.4,2.7,1.2,3.9
			c0.6,1.1,1.3,2.1,1.4,3.4c0.3,8.7,6,14.9,10.9,21.1c2.3,2.9,1.6,3.4-0.3,5.1c-3.2,2.9-3.5-0.8-4.9-2c-8.5-8-12.9-17.7-12.9-29.4
			c0-1.4,0.2-2.8,0-4.2c-0.3-1.5,1.5-3.7-1-4.4c-1.9-0.5-4.1-0.7-5.6,1.2c-2.1,2.6-5.1,4.2-8,5.5c-6.6,3-10.3,8.8-13.2,14.5
			c-5.4,10.4-9,21.1-5.3,33.6c2.8,9.3,6.8,17.1,13.6,23.6C52.5,222,55.9,227.6,62.8,227z"/>
		<path class="st1" d="M441,174.5c-4.3-3.9-5.8-9.3-7.8-14.2c-2.9-7-1-14.8-1.2-22.2c-0.1-2.5,0.5-5.4,1.8-7.6
			c4.6-7.9,9.4-15.8,17.3-21c3.3-2.2,2.7-3.2-0.3-5.7c-5.9-4.8-13.2-5-19.8-6.3c-9.5-1.9-19.2,0.5-28.2,4
			c-9.1,3.6-16.5,9.8-21.7,18.3c-1.3,2.1-3.2,3.8-5.8,2c-3.1-2.1-1.7-4.8,0-6.9c2.3-2.7,5.9-4.6,7.4-7.7c2.1-4,5.6-5.8,9-7.7
			c5.7-3.3,6.3-5.6,1.3-9.8c-5.1-4.3-9.4-9.7-15.7-12.5c-6.8-3.1-13.4-6.4-21.2-7c-5.8-0.5-11,0.9-16.4,2.1
			c-12.2,2.8-22.2,9.3-30,18.7c-5.4,6.5-8,14.8-8.7,23c-1.3,15.6,2.6,29.8,15.7,39.9c2.9,2.2,3,4.9,2.7,7.9
			c-0.2,2.4-2.3,2.4-3.3,1.2c-3.2-4-8.3-6.2-10.5-11c-0.8-1.7-2-2.5-3.6-2.1c-1.9,0.5-1.2,2.3-1.2,3.6c-0.1,5.5,0,10.9,0,16.4
			c0,5.6,0.2,11.2-0.1,16.8c-0.1,3.7,1.4,4.4,4,2.5c8.6-6.4,19.2-5.7,28.8-8.5c0.9-0.3,2.3,0,3.1,0.6c1.5,1.2,3.1,1.1,4.8,1.3
			c6,0.4,11.8,2.1,17.3,4.2c2.7,1,3.6,0.3,4.7-1.8c3-5.9,6.5-11.1,12.4-15.1c10.7-7.2,21.5-7.8,33-3.2c1.4,0.6,2.9,1.6,2,3
			c-0.9,1.3-2.1,3.4-4.5,2.6c-16.2-5.2-25.3-0.9-35.2,11.5c-2.5,3.2-3,7.2-2.6,10.4c0.9,7.4-0.7,15,4,22.4c2.6,4.2,5.2,8.2,8.8,11.4
			c7.2,6.5,16,9.5,25.6,10c11.6,0.6,22.1-2.3,30.7-10.3c5.1-4.7,9.5-10.8,11.3-17c2.1-7.3,1.8-15.5-0.3-23.1
			C447.4,182.5,444.8,177.9,441,174.5z"/>
		<path class="st1" d="M182.5,252.7c-8,4.6-13.9,10.5-13.6,20.6c0.1,3.7-0.4,7.4,1.1,11.1c1.2,2.8-1.8,3.6-3.1,5.1
			c-0.6,0.7-2.3,0.8-2.3,0c0-4.4-4.5-6.8-4.4-11.5c0.2-9.4,2.2-17.7,8.8-24.7c2.2-2.4,4.2-4.6,7.8-4.2c2.9,0.4,2.7-2.7,3.7-4
			c1-1.3-1.6-1.6-2.7-2c-5.3-2.1-10.5-3.7-15.5-6.8c-7.9-4.8-13.8-11.3-18.1-18.6c-2.6-4.5-4.5-3.5-7.4-2.7
			c-6.9,1.8-11.2,7.2-15.8,12c-7.8,8.1-12.5,17.8-12.2,29.4c0.1,4.1-0.5,8.2,0.1,12.1c0.9,6,1.8,12.2,5.9,17.1
			c4.7,5.5,9.8,10.4,15.5,15c4.6,3.7,10.3,5.8,15.2,6.3c7.3,0.7,14.5,2.2,22.3,1c8.5-1.3,15.4-4.5,21.7-9.5c2.3-1.8,6.9-1.1,7.1-5.7
			c0.1-1.1,0.9-2.5,2.5-2.3c1.3,0.2,2,1.3,2.4,2.5c0.7,2.3-2,8.7-4.5,9.2c-2.8,0.5-4.4,2.3-6.1,4c-3.3,3.4-7.3,4.8-12,5.2
			c-3.7,0.4-7.6,1.2-11.4,3.2c6.4,6.8,15.8,7,22.4,12.2c0.1,0.1,0.3,0.1,0.5,0.1c6.4-1.5,12.8,1,19.5-1.3c11.3-4,19.9-10.9,25-21.2
			c3-6,4.7-13.1,4.4-20.3c-0.1-1.7-0.5-3.2-1.2-4.9c-2.6-5.8-4.1-12.1-9.8-16.4c-4.3-3.3-7.8-8.5-12.5-10.4
			C205,248.1,193.6,246.4,182.5,252.7z"/>
		<path class="st1" d="M525.7,231c1.6,0,3.3,0.4,5-0.6c10.2-6,20.5-11.3,26.8-22.5c4.6-8.2,5.1-16.9,6.2-25.5
			c0.4-3.6-1.6-7.5-2.7-11.2c-3-10.2-7.8-19-17.2-24.9c-3.2-2-7.1-2.9-9.7-6c-1-1.2-2.7-0.9-4-0.5c-1.7,0.5-0.9,2.1-0.9,3.2
			c0.7,8.5,0.6,16.7-4.7,24.1c-2.8,4-5.3,8.3-8,12.3c-0.8,1.3-2.3,1.7-3.8,1.1c-1.7-0.8-3.4-1.9-3.8-3.8c-0.4-1.9,1.7-1.2,2.6-1.9
			c0.6-0.5,1.1-1.1,1.6-1.7c6-7.5,7.5-17,11.3-25.4c0.4-0.8,0.1-2.2-0.3-3.2c-1.9-5.4-3.6-10.9-6-16.2c-2.8-6.2-7.6-11.4-13.1-14.7
			c-7.6-4.4-16.1-7-25.3-7.2c-6.2-0.1-12.3,1-17.3,3.6c-7.9,4.1-15.4,9.5-19.3,18.5c-1.3,2.9-2.2,5.9-3.3,8.8
			c-2.1,5.6-2.2,11.1-1,16.5c2,8.6,7.3,15.7,12.1,23c3.5,5.4,6.2,11.6,6.1,18c-0.1,3.9,1.6,7.8,0.2,11.7c-0.7,2,0.3,2.7,2.4,3.4
			c7.7,2.4,15.4,6.1,20.8,11.5c9.4,9.5,21.3,9.5,32.7,11.9C517.5,234,521.3,231,525.7,231z"/>
		<path class="st2" d="M585.1,252.5c-4.2-13.5-8.8-26.9-20.9-35.9c-1.6-1.2-2.1-2.1-1.1-4.5c1.3-3.1,4.3-4.9,5.2-7.4
			c1.3-3.4,2.8-7,3.1-10.8c0.5-6.4,4.2-12.6,0.2-19.1c-0.5-0.8,0.5-2.5,0-3.1c-2.6-3-2.3-7.1-4.4-10.4c-1.6-2.5-2.9-5.1-4.8-7.5
			c-1.1-1.4-1.1-3.7-3.6-4c-1.2-0.1-1.7-1-1.4-1.9c0.6-1.9,0-2.4-1.9-2.8c-2.1-0.5-3.9-1.8-5.2-3.7c-2.7-3.9-7.6-5.1-11-8.3
			c-1.5-1.4-4.4-1.1-6.6-1.8c-7.3-2.2-7.6-10.2-12-14.9c-2.5-2.7-4.4-5.5-7.8-7.7c-3.7-2.5-8.3-3-11.5-6c-1.1-1-2.7-1.4-4.3-1.6
			c-9.8-1.6-19.6-0.4-29.4-0.8c-1.2,0-2.3,0.4-2.7,1.5c-1.8,4.7-2.2,1.9-3.6-0.4c-0.8-1.3-1.4-2.9-3.2-4.1
			c-4.3-2.8-10.7-0.6-13.8-5.9c-0.4-0.6-1.5-0.3-2.1,0.3c-1.8,1.7-3.2,0.7-5-0.1c-7.8-3.5-15.8-3.8-23.6-0.2c-3,1.4-7.1,0.3-9-2.4
			c-3-4.3-6.6-8.2-10.9-10.8c-3.8-2.3-5.6-9-12-6.2c-0.3,0.1-1.2-0.4-1.5-0.9c-4.2-6.3-11-6.5-17.4-7.1c-6.8-0.7-13.8,0.9-20.6,0.5
			c-5.6-0.3-10,1-14.3,4c-1.1,0.8-2.4,1.6-3.7,1.9c-7.1,1.6-11.7,6.7-16.1,11.7c-3.7,4.3-6.4,9.5-9.6,14.3
			c-4.3-4.7-6.1-10.6-10.2-15.1c-4.2-4.6-7.8-9.4-14.5-10.7c-3.6-0.7-6.6-3.9-10.8-3.2c-0.4,0.1-1.2-0.6-1.3-1
			c-1.4-4.2-4.4-2.5-6.8-1.6c-1.1,0.4-2,1.5-3.4,0.7c-4.2-2.5-8.4-2.3-12.6-0.1c-1.3,0.7-2.7,0.7-4,0c-5.4-2.9-10.6-0.1-14.3,2.6
			c-2.9,2.2-5.9,2.8-8.9,4c-1.2,0.5-2.5,0.5-2.7,2c-0.8,5.8-5.9,7.5-10,10.1c-1.2,0.7-2.4,1-2.9,2.7c-1.5,5.8-7.5,8.6-11.9,5.1
			c-3-2.4-5.9-2-9.1-2.6c-6.5-1.3-12.4,3.3-18.9,1.8c-0.5-0.1-1.6,0.2-1.7,0.5c-0.7,3.7-3.9,2.6-6.1,3.2c-3.5,0.9-6.6,2-9.2,5
			c-1.7,2-4.2,4-7.1,1c-1-1-2.4-0.5-3.6-0.5c-5.6,0-11.2-0.1-16.9,0c-5.6,0.1-11.7-1.5-15.6,4.5c-0.2,0.3-0.9,0.3-1.3,0.3
			c-4.8,0.7-7.8,4-11,7.3c-3.1,3.1-5,7.2-8.7,9.7c-1.1,0.7-1.7,1.8-1.7,3.2c-0.1,2.7-2,3.9-4.1,5.2c-7.8,4.7-17.6,5.7-23.5,14.2
			c-1.2,1.7-3.8,4.3-6.4,5.6c-4.1,2-3.2,8.5-8.3,9.8c0,0,0.1,0.6,0.2,0.9c0.2,4.7-0.8,9-2.3,13.5c-0.9,2.8-2.7,8-1.7,8.8
			c3.7,3.2-2.9,8.1,2.2,10.3c-3.6,7.1,3.1,11.1,5.5,16.1c1.6,3.3,2,4.9-0.6,6.8c-5.1,3.8-9.4,8.1-13.3,13.2c-2,2.6-2.4,5.6-4,8.2
			c-2.3,3.7-4.4,7.5-2.6,12.1c0.5,1.2-0.1,2.1-1.4,2.4c-0.5,0.1-1.5,0.9-0.8,1.1c4,1.5,0.5,4.3,1.2,6.3c0.8,2.2-0.1,4.5,0.5,7
			c1.2,4.9,4.8,8.8,5.2,13.9c0.2,2.7,3.6,3.8,4.1,5.2c3.2,9.8,12,14.3,19.2,19.9c4.1,3.1,10.2,4,15.2,6.2c2.1,0.9,5.4,1.6,6.4,1.3
			c5.5-1.8,11.1-1.5,16.6-1.3c11.1,0.4,19.5-6,28.9-10.1c1.1-0.5,1.7-1.6,2.2-2.9c1.2-3.1,4.9-4,6.6-1.2c2.6,4.1,7.5,5.3,9.8,8.9
			c-3.7,5.1-10.7,3.6-15.3,7.7c-3,2.7-5.9,5.5-9,8.1c-2.4,2.1-4.2,4.9-8.1,5c-2,0.1-2.2,2.1-1.7,3.6c1.3,3.5,0.1,6.2-2.1,8.8
			c-1.4,1.6-2.7,3.5-1.5,5.5c1.6,2.6,0.4,4.9,0.4,7.3c0.1,3.7-1.8,7.4,0.2,11.3c3.7,7.2,6.3,15.1,12.5,20.9c5,4.6,9.8,9.6,16.5,11.6
			c2,0.6,3.2,1.4,3.8,3.5c0.4,1.4,7.2,2.8,7.1,2c-0.6-4.7,3.1-2.7,4.6-2.6c6.3,0.3,12.9,1.3,18.7-0.6c6.4-2.1,12.8-5.3,18.2-9.8
			c1.6-1.3,4.2-2.8,2.2-5.2c-1.7-2.2-4.3-3.7-7.3-1.4c-1.7,1.3-3.3,3-5.2,4c-10.8,5.5-22.2,6.6-33.9,3.8
			c-13.5-3.1-25.2-16-27.8-30.3c-2.8-16,3.6-28,16.3-36.8c14.9-10.3,33.7-10.2,47.7,0.2c15.1,11.2,31.1,15.8,49.4,9.8
			c7-2.3,14.1-5.3,18.9-10.5c7.8-8.4,13.5-17.6,14.7-30.2c1.4-15-3.4-26.3-13.1-36.6c-5.9-6.3-14-8.3-21.7-11.1
			c-1-0.4-2.4-0.4-2.7-1.5c-0.4-1.5,1-2.1,2-2.8c0.9-0.7,1.8-1.2,2.7-1.8c13.9-9.3,22-21.9,22.3-39c0-2.6,1.7-3.5,3.5-4.4
			c17.4-9.1,34.1-5.8,50.4,3c2.8,1.5,3.5,4.1,3.4,7.1c-0.1,13.1,0,26.2-0.1,39.3c0,2,1.1,4.6-1.9,5.6c-2.8,1-5-0.7-6.5-2.5
			c-3.5-4.2-6.5-8.8-6.8-14.5c-0.7-15.9-12.5-27.4-26.1-28.7c-2.6-0.3-3.9,0.5-4.8,2.5c-1.1,2.3,0.3,4,2.1,5.1
			c1.4,0.9,3.2,1.2,4.8,1.8c4.3,1.6,8.4,3.5,10.5,7.9c2.3,5,5,9.9,4.4,15.9c-0.3,3,1.3,5.7,2.8,8.3c4.1,7,10,11.9,17.7,14.5
			c2.6,0.9,4,2.1,3.9,4.9c-0.1,7.8-0.1,15.6-0.1,23.4c-1.7,1.5-0.4,3.9-1.7,5.7c-1.2-1-2.1-2.4-3.8-2.6c-1.6-2.5-3.3-4.8-5.6-6.8
			c-2.8-2.5-5.4-1.8-6.9,1.6c-1,2.3,0,4.3,1.2,6.1c4.1,6.5,8.4,13,12.6,19.5c1.2-0.1,2.7,0.4,3.5-0.8c4.1-6.2,9.9-5.3,15.9-4
			c1.7-0.5,3-1.7,4.1-3c3-3.7,5.3-8,8.3-11.8c1.5-1.9,2.3-4.1,0.7-6.4c-1.7-2.4-4.1-2.6-6.7-2.1c-2.5,0.5-4.6,1.8-6.2,3.9
			c-1.3,1.7-2.4,3.6-3.7,5.4c-0.8,0.9-1.8,1.7-2-0.4c-0.2-2,0-3.9,0-5.9c0-5,0.4-10-0.1-15c-0.6-6.5,1.8-10.2,7.8-13
			c10-4.6,15.9-12.5,16.8-24c0.8-9.8,4.8-17.7,15.5-20.3c1.7-0.4,3.2-1.4,4.3-2.7c1.4-1.6,2.3-3.4,1.5-5.6c-0.8-2.1-2.5-3.1-4.7-3.3
			c-2.3-0.2-4.7-0.2-7,0.5c-11.6,3.7-20.2,15-20.8,27.2c-0.3,6.4-2.8,11.8-8.3,15.5c-1.2,0.8-2.3,2.1-3.7,1.5
			c-1.8-0.7-1.3-2.6-1.4-4.1c0-11.9,0.1-23.7-0.1-35.6c-0.1-5.8,2.7-9.5,7.5-11.9c13.7-6.8,27.6-8,41.8-1.4c3.5,1.6,5.2,3.8,5.5,7.7
			c0.8,10.8,4.7,20.2,12.8,27.8c3.5,3.3,7.2,6.5,11,9.5c3.3,2.6,3.3,2.7-0.5,4.2c-6.2,2.5-12.5,4.6-18,8.7
			c-6.9,5.2-11.5,12-13.5,20.1c-1.3,5.2-1.6,10.8-1.8,16.2c-0.5,10.7,2.5,20.3,10.1,28.1c6.5,3,8,2.5,11.4-4.4
			c0.8-1.8-0.7-2.9-1.4-4.3c-3.6-4.3-5.5-9.2-6.2-14.7c-0.8-2.7,0-5.7-1-8.3c-1.7-4.3-0.2-7.9,2.3-11.3c4.6-6.6,10.7-11.7,16.3-17.3
			c2.7-2.7,6.3-3.9,10-4.7c3.9-0.8,7.8,0,11.6-0.5c6.8-0.8,12,1.9,16.6,6.7c6.9,7.1,7.9,15.6,6.3,24.8c-0.6,3.3-0.5,6.4,3.2,7.9
			c3,1.3,7.3-0.4,9.3-3.6c1.7-2.7,2.7-5.6,2.7-8.8c0.2-13.5-3.4-25.1-16.3-32.5c5-2.6,10.2-3.8,14.5-7.1c6.8-5.1,12-11.3,16.7-18.1
			c1.8-2.6,3.6-3.1,6.7-1.5c7.4,4,13.2,9.8,18.5,16.1c1.1,1.3,2.1,2.8,2.5,4.5c2,7.5,4.2,14.9,3.7,22.9
			c-0.8,13.1-6.4,23.3-16.2,31.8c-9.6,8.3-20.6,10.6-33,10.4c-11.1-0.1-20.7-3.3-29.3-10.3c-2.3-1.9-4.7-3.6-7.2-5.2
			c-3-2.1-5.2-1.3-6.8,1.9c-1.9,3.6-1.1,7.2,2.3,10.6c2.6,2.7,6,4.4,8.8,6.9c3.3,3,7.2,4.8,11.8,5c1.9,0.1,4-0.1,5.4,1.8
			c-2.5,1-22.8,9.1-36.8,5.3c-2.6-0.7-5.2-1.4-8.1-3.4c-6.8-4.6-7.5-10.9-10.9-11.1c-1.7-0.1-4.4,1.4-8.1,9.8
			c3.4,2.9,13.1,10.9,24,14.5c1.6,0.5,4.4,1.7,8.4,2c4.4,0.3,8.4,0.3,12.8-0.1c6.4-0.5,11.9-3,17.8-4.5c5.2-1.4,7.7-5.9,12.4-7.7
			c5.6-2.2,11.4-3.5,16.9-5.5c9.3-3.5,17.6-0.4,25.4,2.3c5.7,2,10.9,6.8,15,11.9c2.4,3,5.8,6.1,6.4,9.5c1.8,11,3.2,22-2.6,32.7
			c-4.2,7.7-9.8,13.9-17.7,17.2c-16.6,7-32.9,6.7-47.7-5.1c-2-1.6-4.5-1.8-6.4-0.1c-2.3,2.1-0.4,4.1,0.9,5.7c3.9,4.8,9.4,7,15.1,8.6
			c8.6,2.5,17.4,0.8,26,1c11.2,0.3,20.4-4.5,28-12.4c4.9-5.1,8.9-10.9,11.2-17.7c1.3-3.9,4.3-7.8,1.2-12.3c-0.6-0.9,0.2-2,0.6-3
			c1.1-3.7,3.1-7.9,0.7-11.2c-3.1-4.2-4.1-9.3-6.8-13.6c-0.7-1.2-1.8-2.1-2.8-3.1c-7.6-8.5-17.3-14-27.6-18.9
			c3.1-5.6,9.7-6.6,13.4-11.3c5.2,8.2,14.3,10.2,21.7,14.7c3.8,2.3,8.2,2.8,12.7,2.7c5.4-0.2,10.9-0.6,16.3-0.7
			c11.3-0.2,19.5-7.3,28.8-12.3c3-1.6,5.9-3.6,7.8-6.6c6.3-9.9,12-19.9,13.5-31.8C583.9,258.5,586,255.4,585.1,252.5z M34.8,194.5
			c-3.7-12.6-0.1-23.2,5.3-33.6c2.9-5.7,6.6-11.5,13.2-14.5c2.9-1.3,5.9-2.8,8-5.5c1.5-1.9,3.7-1.8,5.6-1.2c2.5,0.7,0.7,2.9,1,4.4
			c0.2,1.4,0,2.8,0,4.2c0,11.7,4.4,21.5,12.9,29.4c1.4,1.3,1.7,4.9,4.9,2c1.9-1.7,2.6-2.2,0.3-5.1c-4.9-6.2-10.6-12.3-10.9-21.1
			c0-1.3-0.7-2.3-1.4-3.4c-0.7-1.2-1.8-2.6-1.2-3.9c3.8-7.9,3.6-17.3,10.3-24.2c8.2-8.5,17.6-14.5,29.2-15.7
			c4.6-0.5,9.9,0.6,14.9,1.4c5.7,0.9,10.4,3.5,14.8,5.9c4.5,2.4,8.9,6.6,11.3,11.8c0.8,1.7,1.3,3.6,2.5,5c3.5,4.6,3.2,9.8,3.4,15.2
			c0.1,5.5-1.4,10.3-2.9,15.4c-1.6,5.5-5.5,9.1-8.2,13.7c-4.4,7.7-8,15.4-7.3,24.5c0.1,1.2-0.1,2.5,0,3.7c0.5,4.2-0.7,6.2-5.3,7.9
			c-6.9,2.6-13.6,6.1-18.7,12.1c-4.4,5-11.4,6.1-17.5,8.1c-5,1.6-10.5,3.4-15.9,2.1c-6.9-1.8-15.1,0.4-20.5-6.2
			c-7,0.6-10.3-5-14.5-8.9C41.5,211.6,37.5,203.8,34.8,194.5z M105,294.4c-4.5,3.8-9.3,7.2-15.3,8.3c-1.1,0.2-2.6,0.3-3.1,1
			c-2.6,3.9-7.3,2.7-10.3,2.8c-4.8,0.1-10.4,1.1-15-1.8c-2.3-1.5-5-1.3-7.2-1.5c-9.5-1-15.4-8.1-21.6-13.4
			c-6-5.1-11.3-12.6-10.7-21.9c0.1-1.4-0.7-2.4-1.5-3.3c-0.8-0.9-1.6-2.2-1-2.9c4.2-5-1.4-10.9,1.8-16.2c3-4.9,5.7-9.9,7.5-15.4
			c0.3-1,1.2-2.1,2-2.4c3.3-1.1,5.2-3.7,7.3-6.1c2-2.2,3.8-2.5,5.7,0.7c1.8,3.2,3.8,6.4,8.6,6.5c4.5,0,7.5,4.8,12.2,5.2
			c0.5,0,0.7,2.4,1.1,3.8c2.4-1.2,4.9-3.5,6.9,0.4c0.1,0.2,0.8,0.2,1.2,0.1c4.8-1.6,9.9,0.7,14.5-0.5c4-1,8.2,0.1,12.1-1.4
			c1.4-0.5,3.8-1.1,4.7,0.6c0.8,1.7,1.2,4.4-0.5,5.7c-4.2,2.9-3.7,8.3-4,11.5c-0.4,4.9-0.5,10.7,1.4,15.8c1.4,3.8,3.5,7.3,4.2,11.4
			c0.2,1.1,0.3,2.4,1,3.1C112.4,289,107.9,292,105,294.4z M215.8,252.5c4.7,1.9,8.2,7.1,12.5,10.4c5.7,4.4,7.2,10.6,9.8,16.4
			c0.7,1.6,1.1,3.1,1.2,4.9c0.3,7.2-1.4,14.3-4.4,20.3c-5.1,10.3-13.8,17.2-25,21.2c-6.7,2.4-13.1-0.1-19.5,1.3
			c-0.1,0-0.4,0-0.5-0.1c-6.6-5.3-16-5.4-22.4-12.2c3.8-2,7.7-2.8,11.4-3.2c4.7-0.5,8.7-1.8,12-5.2c1.7-1.8,3.3-3.5,6.1-4
			c2.6-0.4,5.3-6.9,4.5-9.2c-0.4-1.3-1.1-2.3-2.4-2.5c-1.6-0.3-2.4,1.2-2.5,2.3c-0.3,4.6-4.8,3.9-7.1,5.7
			c-6.3,4.9-13.1,8.2-21.7,9.5c-7.8,1.2-15.1-0.3-22.3-1c-4.9-0.5-10.6-2.6-15.2-6.3c-5.7-4.5-10.8-9.5-15.5-15
			c-4.2-4.9-5-11.1-5.9-17.1c-0.6-4,0-8.1-0.1-12.1c-0.3-11.6,4.4-21.3,12.2-29.4c4.6-4.8,8.9-10.2,15.8-12c2.9-0.8,4.8-1.7,7.4,2.7
			c4.3,7.3,10.2,13.8,18.1,18.6c5.1,3.1,10.3,4.7,15.5,6.8c1.1,0.4,3.7,0.7,2.7,2c-1,1.3-0.8,4.3-3.7,4c-3.6-0.5-5.6,1.8-7.8,4.2
			c-6.5,7-8.6,15.4-8.8,24.7c-0.1,4.7,4.4,7.1,4.4,11.5c0,0.8,1.8,0.8,2.3,0c1.2-1.6,4.2-2.3,3.1-5.1c-1.5-3.6-1-7.3-1.1-11.1
			c-0.3-10.1,5.6-16,13.6-20.6C193.6,246.4,205,248.1,215.8,252.5z M278,162.8c0.5,1.6,2.4,1.1,3.3-0.3c2.9-4.4,8.8-6.1,10.4-11.7
			c0.4-1.2,2-1.2,3.3-0.9c1.6,0.4,1.1,1.7,1.1,2.6c0.1,5.8,0,11.5,0,17.3c0,5.6-0.1,11.2,0,16.8c0.1,3.2-1.2,3.9-4,2.7
			c-3.8-1.7-8-2.8-11.4-5c-2.7-1.8-5.4-2-8.3-2c-5.7-0.1-11.5-1.1-17.1-0.5c-5.9,0.7-11.8,2.5-17.3,4.6c-3.3,1.3-4.9-0.3-5.3-2.4
			c-1.1-6.2-6.2-9.5-10.1-12.8c-9.5-8.1-21-9.4-32.9-5.7c-1.7,0.5-4.8,1-3.5,3.7c0.9,1.8,2.4,4.5,6.1,2.5c6.6-3.5,13.8-2.4,20.3,0.4
			c8.6,3.6,14.8,10,15.8,19.6c1,9.4,0.6,18.8-5.4,27c-2.5,3.4-4.8,6.7-7.8,9.7c-6.7,6.9-15.4,8.3-24.1,9.4c-7,0.8-13.9-0.3-20.3-3.2
			c-8.2-3.8-14.3-9.2-19.3-17.5c-5.6-9.2-3.9-18.3-3.9-27.3c0-5.3,2.9-11.2,8.1-14.5c1.9-1.2,2.1-3.1,2.9-4.5
			c2.8-5.3,6.7-10.3,6.6-16.8c-0.1-6.3,0.9-12.5-0.9-18.7c-2.6-8.7-6.1-16.7-14-22c-2.7-1.8-6.5-3.7-6.5-6.7c0-3.4,4.6-3.7,7.2-4.7
			c11-4.3,22.1-5.9,34.1-3.5c7.9,1.6,14.4,5.7,21,9.4c4.7,2.7,8.1,7.5,11.1,12.3c0.9,1.4,2,2.9,4.1,2.2c1.7-0.5,2.3-1.9,2.6-3.6
			c0.1-1-0.1-1.8-0.9-2.5c-5.3-5.2-10.5-10.4-15.8-15.6c-0.3-0.3-0.7-0.6-1.1-0.9c-7-4.7-7.1-4.8-1.7-11
			c7.1-8.2,16.2-12.9,26.6-15.7c4.2-1.1,8.1-2.6,12.6-3.1c11.5-1.1,21,3.8,30.2,8.8c5,2.8,10,6.7,12.4,12.7c0.4,0.9,1.5,1.6,2.2,2.4
			c2.2,2.4,4.4,4.9,5,8.3c1.6,8.4,4.1,17,2.3,25.5c-1,4.6-2.2,9.4-5.2,13.9c-3.6,5.3-7.7,9.8-12.2,14.2
			C276.4,157.8,277.3,160.6,278,162.8z M449.1,210.6c-1.8,6.3-6.2,12.3-11.3,17c-8.6,8-19,11-30.7,10.3c-9.7-0.5-18.4-3.6-25.6-10
			c-3.6-3.2-6.1-7.2-8.8-11.4c-4.7-7.4-3.1-15-4-22.4c-0.4-3.1,0.1-7.2,2.6-10.4c9.9-12.4,18.9-16.8,35.2-11.5
			c2.4,0.8,3.6-1.3,4.5-2.6c1-1.4-0.6-2.4-2-3c-11.6-4.6-22.4-4-33,3.2c-5.8,3.9-9.4,9.1-12.4,15.1c-1,2.1-1.9,2.8-4.7,1.8
			c-5.6-2.1-11.3-3.7-17.3-4.2c-1.7-0.1-3.3-0.1-4.8-1.3c-0.7-0.6-2.2-0.8-3.1-0.6c-9.6,2.8-20.2,2.1-28.8,8.5
			c-2.6,1.9-4.2,1.2-4-2.5c0.2-5.6,0.1-11.2,0.1-16.8c0-5.5,0-10.9,0-16.4c0-1.3-0.7-3.1,1.2-3.6c1.6-0.4,2.8,0.4,3.6,2.1
			c2.2,4.8,7.3,7.1,10.5,11c1,1.2,3,1.2,3.3-1.2c0.3-3,0.2-5.7-2.7-7.9c-13.1-10.1-17-24.3-15.7-39.9c0.7-8.2,3.3-16.5,8.7-23
			c7.8-9.4,17.8-15.9,30-18.7c5.4-1.2,10.6-2.6,16.4-2.1c7.8,0.6,14.4,4,21.2,7c6.3,2.9,10.6,8.2,15.7,12.5c5,4.2,4.4,6.5-1.3,9.8
			c-3.4,2-6.9,3.8-9,7.7c-1.6,3-5.1,4.9-7.4,7.7c-1.7,2-3.1,4.7,0,6.9c2.6,1.8,4.5,0.1,5.8-2c5.2-8.6,12.6-14.8,21.7-18.3
			c9-3.5,18.7-5.9,28.2-4c6.6,1.3,14,1.5,19.8,6.3c3,2.4,3.5,3.5,0.3,5.7c-7.9,5.3-12.7,13.1-17.3,21c-1.3,2.2-1.8,5-1.8,7.6
			c0.2,7.4-1.8,15.2,1.2,22.2c2,4.9,3.5,10.2,7.8,14.2c3.8,3.4,6.4,8.1,7.8,13C450.9,195,451.2,203.3,449.1,210.6z M480.3,221.5
			c-5.4-5.4-13.1-9.1-20.8-11.5c-2.1-0.7-3.1-1.4-2.4-3.4c1.4-4-0.3-7.8-0.2-11.7c0.1-6.5-2.6-12.6-6.1-18
			c-4.7-7.3-10.1-14.4-12.1-23c-1.2-5.4-1.1-10.9,1-16.5c1.1-2.9,2-5.9,3.3-8.8c4-8.9,11.4-14.3,19.3-18.5c4.9-2.6,11-3.7,17.3-3.6
			c9.2,0.2,17.7,2.7,25.3,7.2c5.6,3.2,10.3,8.5,13.1,14.7c2.4,5.2,4.1,10.7,6,16.2c0.3,1,0.7,2.3,0.3,3.2
			c-3.9,8.4-5.3,17.9-11.3,25.4c-0.5,0.6-1,1.2-1.6,1.7c-0.9,0.7-3,0-2.6,1.9c0.4,1.9,2.1,3,3.8,3.8c1.4,0.6,2.9,0.2,3.8-1.1
			c2.7-4.1,5.2-8.3,8-12.3c5.2-7.4,5.3-15.6,4.7-24.1c-0.1-1.1-0.9-2.7,0.9-3.2c1.3-0.4,3-0.7,4,0.5c2.6,3.1,6.5,4,9.7,6
			c9.4,6,14.2,14.8,17.2,24.9c1.1,3.7,3.1,7.6,2.7,11.2c-1,8.7-1.6,17.3-6.2,25.5c-6.3,11.2-16.6,16.5-26.8,22.5
			c-1.7,1-3.4,0.6-5,0.6c-4.4,0-8.2,3-12.8,2.5C501.6,231,489.7,231,480.3,221.5z M575.3,272c-1.4,5-3.7,10.8-8.4,15.4
			c-4.3,4.1-9.2,7.4-13.3,11.5c-3.5,3.6-8.6,3.8-12.7,4.9c-4.8,1.3-9.9,3.8-15.7,2.1c-9.4,2.2-17.8-2.1-25.7-6.5
			c-4.4-2.5-8.5-6.4-11.7-10.7c-0.3-0.4-0.6-1.5-0.4-1.6c3.6-3.4,3-9.1,6.9-12.2c1.9-1.5-0.9-2.5-0.1-4.1c2.1-3.8,2.9-7.3,1.9-12.3
			c-0.7-3.6-1.3-8.4-0.7-12.7c0.2-1.6-0.1-3.1-1.7-4c-2-1.1-2.6-2.8-1.6-4.7c1-1.9,3.5-1.6,4.6-0.9c4.2,2.6,8.8,1.8,13.1,1.4
			c3.6-0.3,7,3.5,10.6,0.3c0.3-0.3,1.1,0,1.5,0.7c1.5,2.7,2.2,3.1,2.6-0.6c0.2-1.6,2.4-2.2,4.3-2c6.3,0.7,10.9-2.6,16-5.9
			c4.4-2.9,8.7-5.7,12.6-9.3c0.8-0.7,1.4,0.1,1.9,0.6c8.2,7,13.3,15.6,17,25.9C579.5,256.1,577.5,264.4,575.3,272z"/>
	</g>
</g>
<path class="st2" d="M136.4,710.2c5.9-13.9,11.6-27.1,17.3-40.3c8.5-20,17-39.9,25.5-59.9c2.1-4.9,5.4-6.7,9.2-5.1
	c3.8,1.6,4.7,5,2.6,10.1c-15.6,36.8-31.3,73.5-46.9,110.3c-1.3,3.2-3.1,6-6.9,6.1c-3.9,0.1-5.5-2.9-6.9-6
	c-2.2-5.1-4.5-10.3-7.1-16.4c-2.5,5.8-4.4,10.5-6.5,15.2c-1.5,3.5-3.1,7.4-7.8,7.2c-4.2-0.1-5.4-3.8-6.7-7
	c-13.7-32-27.3-63.9-41-95.9c-1.9-4.4-3.8-8.9-5.6-13.3c-2-4.7-0.9-8.7,2.7-10.2c3.9-1.6,7,0.1,9.1,5.1
	c13.8,32.5,27.7,64.9,41.5,97.4c0.3,0.8,0.9,1.5,1.6,2.7c3.6-8.2,9-15.1,2.9-24.3c-3.1-4.6-4.3-10.5-6.7-15.6
	c-1.7-3.7-0.3-6.3,2.7-7.8c3.1-1.5,5.7,0,7.1,3.2c2,4.6,4,9.1,6.3,14.1c3.2-3.7,4.1-8.2,6-12c1.7-3.6,3.6-7.4,8.4-5
	c4.6,2.3,3.1,6.3,1.5,9.9c-1.9,4.4-3.2,9.2-5.8,13.2C127.2,694.9,131.7,702.1,136.4,710.2z"/>
<path class="st2" d="M289,644.3c7.9-0.8,15.4,1.5,22.5,5.5c1.8,1,3.4,2.3,4.9,3.7c2.4,2.2,2.5,4.9,0.9,7.6c-1.6,2.7-4.4,3.4-7.3,2.5
	c-1.6-0.5-3.1-1.5-4.6-2.4c-8.8-5.6-18.3-5.7-28-3.1c-4.4,1.2-7.5,4-7.6,9.3c-0.1,5.5,3.4,7.7,7.7,9.1c6.7,2.2,13.8,1.1,20.6,1.9
	c16.7,2,25.1,10.1,25.3,25.2c0.2,17.5-8.3,27.9-24.8,30.2c-13.1,1.9-25.5,0.7-36.6-7.3c-4.5-3.2-7.6-7.5-10.3-12.2
	c-2-3.5-2.2-7.1,1.6-9.5c3.8-2.5,7.1-0.7,9.4,2.6c7,9.9,16.3,15.3,28.6,14.7c4.2-0.2,8.3-0.9,12-2.9c5.7-3.1,8.4-9.1,7.4-16.9
	c-0.8-6-4.8-8.9-10.1-10.5c-4-1.2-8.1-1.5-12.3-1.6c-5.4,0-10.7-0.4-15.9-2.1c-10.1-3.4-15.3-10-15.6-20.2
	c-0.3-9.9,4.9-17.6,14.5-21.2C276.8,644.7,282.7,643.8,289,644.3z"/>
<path class="st2" d="M466.9,706.4c0,5.9,0.1,11.8,0,17.7c-0.1,4.8-2.7,8-6.5,7.5c-4.2-0.5-6.3-2.9-6.3-7.3c0.1-13.3-0.2-26.7,0.1-40
	c0.6-23.2,19.9-40.6,44.3-40.4c6.1,0.1,12,1,17.6,3.4c3.7,1.6,5.4,4.4,4.4,8.2c-1,3.6-3.9,5.2-7.7,4.4c-2.1-0.4-4.1-1.5-6.3-2
	c-18-4.5-39.1,4.4-39.7,30.8C466.8,694.6,466.9,700.5,466.9,706.4z"/>
<path class="st3" d="M223.2,676.7c0,5.7,0.2,11.4,0,17.2c-0.5,11.9,4.6,21,13.8,28.1c4.2,3.2,5.3,6.9,2.8,10
	c-3.1,3.9-6.7,3-10.1,0.5c-12.2-9.1-19.1-21.3-19.6-36.6c-0.5-13.5-0.1-27-0.1-40.5c0-5,2.6-8.5,6.3-8.7c3.9-0.2,6.8,3.4,6.8,8.7
	C223.2,662.5,223.2,669.6,223.2,676.7z"/>
<path class="st4" d="M216.7,631.6c-4.4,0.1-6.6-2.5-6.6-6c0-3.7,2.1-6.4,6.5-6.2c3.7,0.1,6.9,3.1,6.3,6.5
	C222.4,629.3,220.6,632,216.7,631.6z"/>
<g>
	<path class="st2" d="M432.4,689.3c0-27-17.4-45.2-43.5-45.2c-26.2-0.1-44,18.1-44,44.9c0,26.9,18.2,46,43.9,45.8
		C414.2,734.4,433.1,716.1,432.4,689.3z M388.2,721.3c-18.2,0.7-30.5-13-30.5-32.2c0-19.1,12.7-32.2,30.9-32.2
		c18.5,0,31.2,13.3,31,32.6C419.5,707.6,408.2,722.1,388.2,721.3z"/>
</g>
</svg>
